<svg xmlns="http://www.w3.org/2000/svg" width="179.972" height="332.935" viewBox="0 0 693 1282">
  <defs>
    <style>
      .cls-1, .cls-4 {
        fill: #b4b4b5;
      }

      .cls-1, .cls-2 {
        fill-rule: evenodd;
      }

      .cls-2, .cls-3 {
        fill: #898989;
      }

      .cls-5 {
        fill: #c438bb;
      }

      .cls-6 {
        fill: #b52bac;
      }

      .cls-7, .cls-8, .cls-9 {
        fill: #fff;
      }

      .cls-7 {
        opacity: 0.7;
      }

      .cls-9 {
        opacity: 0.5;
        mix-blend-mode: overlay;
      }

      .cls-10 {
        fill: #3bc744;
        fill-opacity: 0;
        stroke-width: 30px;
      }

      .cls-10, .cls-11 {
        stroke: #fff;
        stroke-linejoin: round;
      }

      .cls-11 {
        stroke-width: 15px;
        font-size: 274.279px;
        fill: #82067a;
        text-anchor: middle;
        font-family: Satisfy;
      }
    </style>
  </defs>
  <path class="cls-1" d="M93,47H601l90,83H3Z"/>
  <path id="Rectangle_2_copy" data-name="Rectangle 2 copy" class="cls-2" d="M93,1282H601l90-83H3Z"/>
  <rect id="Rounded_Rectangle_2" data-name="Rounded Rectangle 2" class="cls-3" x="62" width="571" height="47" rx="23.5" ry="23.5"/>
  <rect id="Rounded_Rectangle_2_copy" data-name="Rounded Rectangle 2 copy" class="cls-4" x="155" y="12" width="167" height="23" rx="11.5" ry="11.5"/>
  <rect class="cls-5" y="130" width="693" height="1069"/>
  <rect id="Rectangle_1_copy" data-name="Rectangle 1 copy" class="cls-6" x="460" y="130" width="233" height="1069"/>
  <g>
    <circle class="cls-7" cx="46" cy="174" r="18"/>
    <circle id="Ellipse_1_copy" data-name="Ellipse 1 copy" class="cls-7" cx="113" cy="174" r="18"/>
    <circle id="Ellipse_1_copy_2" data-name="Ellipse 1 copy 2" class="cls-7" cx="180" cy="174" r="18"/>
    <circle id="Ellipse_1_copy_3" data-name="Ellipse 1 copy 3" class="cls-7" cx="247" cy="174" r="18"/>
    <circle id="Ellipse_1_copy_4" data-name="Ellipse 1 copy 4" class="cls-7" cx="314" cy="174" r="18"/>
    <circle id="Ellipse_1_copy_5" data-name="Ellipse 1 copy 5" class="cls-7" cx="381" cy="174" r="18"/>
    <circle id="Ellipse_1_copy_6" data-name="Ellipse 1 copy 6" class="cls-7" cx="448" cy="174" r="18"/>
    <circle id="Ellipse_1_copy_7" data-name="Ellipse 1 copy 7" class="cls-7" cx="515" cy="174" r="18"/>
    <circle id="Ellipse_1_copy_8" data-name="Ellipse 1 copy 8" class="cls-7" cx="582" cy="174" r="18"/>
    <circle id="Ellipse_1_copy_9" data-name="Ellipse 1 copy 9" class="cls-7" cx="649" cy="174" r="18"/>
  </g>
  <g id="Group_1_copy" data-name="Group 1 copy">
    <circle class="cls-8" cx="46" cy="231" r="18"/>
    <circle id="Ellipse_1_copy-2" data-name="Ellipse 1 copy" class="cls-8" cx="113" cy="231" r="18"/>
    <circle id="Ellipse_1_copy_2-2" data-name="Ellipse 1 copy 2" class="cls-8" cx="180" cy="231" r="18"/>
    <circle id="Ellipse_1_copy_3-2" data-name="Ellipse 1 copy 3" class="cls-8" cx="247" cy="231" r="18"/>
    <circle id="Ellipse_1_copy_4-2" data-name="Ellipse 1 copy 4" class="cls-8" cx="314" cy="231" r="18"/>
    <circle id="Ellipse_1_copy_5-2" data-name="Ellipse 1 copy 5" class="cls-8" cx="381" cy="231" r="18"/>
    <circle id="Ellipse_1_copy_6-2" data-name="Ellipse 1 copy 6" class="cls-8" cx="448" cy="231" r="18"/>
    <circle id="Ellipse_1_copy_7-2" data-name="Ellipse 1 copy 7" class="cls-8" cx="515" cy="231" r="18"/>
    <circle id="Ellipse_1_copy_8-2" data-name="Ellipse 1 copy 8" class="cls-8" cx="582" cy="231" r="18"/>
    <circle id="Ellipse_1_copy_9-2" data-name="Ellipse 1 copy 9" class="cls-8" cx="649" cy="231" r="18"/>
  </g>
  <g id="Group_1_copy_2" data-name="Group 1 copy 2">
    <circle class="cls-8" cx="46" cy="288" r="18"/>
    <circle id="Ellipse_1_copy-3" data-name="Ellipse 1 copy" class="cls-8" cx="113" cy="288" r="18"/>
    <circle id="Ellipse_1_copy_2-3" data-name="Ellipse 1 copy 2" class="cls-8" cx="180" cy="288" r="18"/>
    <circle id="Ellipse_1_copy_3-3" data-name="Ellipse 1 copy 3" class="cls-8" cx="247" cy="288" r="18"/>
    <circle id="Ellipse_1_copy_4-3" data-name="Ellipse 1 copy 4" class="cls-8" cx="314" cy="288" r="18"/>
    <circle id="Ellipse_1_copy_5-3" data-name="Ellipse 1 copy 5" class="cls-8" cx="381" cy="288" r="18"/>
    <circle id="Ellipse_1_copy_6-3" data-name="Ellipse 1 copy 6" class="cls-8" cx="448" cy="288" r="18"/>
    <circle id="Ellipse_1_copy_7-3" data-name="Ellipse 1 copy 7" class="cls-8" cx="515" cy="288" r="18"/>
    <circle id="Ellipse_1_copy_8-3" data-name="Ellipse 1 copy 8" class="cls-8" cx="582" cy="288" r="18"/>
    <circle id="Ellipse_1_copy_9-3" data-name="Ellipse 1 copy 9" class="cls-8" cx="649" cy="288" r="18"/>
  </g>
  <g id="Group_1_copy_3" data-name="Group 1 copy 3">
    <circle class="cls-8" cx="46" cy="1035" r="18"/>
    <circle id="Ellipse_1_copy-4" data-name="Ellipse 1 copy" class="cls-8" cx="113" cy="1035" r="18"/>
    <circle id="Ellipse_1_copy_2-4" data-name="Ellipse 1 copy 2" class="cls-8" cx="180" cy="1035" r="18"/>
    <circle id="Ellipse_1_copy_3-4" data-name="Ellipse 1 copy 3" class="cls-8" cx="247" cy="1035" r="18"/>
    <circle id="Ellipse_1_copy_4-4" data-name="Ellipse 1 copy 4" class="cls-8" cx="314" cy="1035" r="18"/>
    <circle id="Ellipse_1_copy_5-4" data-name="Ellipse 1 copy 5" class="cls-8" cx="381" cy="1035" r="18"/>
    <circle id="Ellipse_1_copy_6-4" data-name="Ellipse 1 copy 6" class="cls-8" cx="448" cy="1035" r="18"/>
    <circle id="Ellipse_1_copy_7-4" data-name="Ellipse 1 copy 7" class="cls-8" cx="515" cy="1035" r="18"/>
    <circle id="Ellipse_1_copy_8-4" data-name="Ellipse 1 copy 8" class="cls-8" cx="582" cy="1035" r="18"/>
    <circle id="Ellipse_1_copy_9-4" data-name="Ellipse 1 copy 9" class="cls-8" cx="649" cy="1035" r="18"/>
  </g>
  <g id="Group_1_copy_6" data-name="Group 1 copy 6">
    <circle class="cls-8" cx="46" cy="978" r="18"/>
    <circle id="Ellipse_1_copy-5" data-name="Ellipse 1 copy" class="cls-8" cx="113" cy="978" r="18"/>
    <circle id="Ellipse_1_copy_2-5" data-name="Ellipse 1 copy 2" class="cls-8" cx="180" cy="978" r="18"/>
    <circle id="Ellipse_1_copy_3-5" data-name="Ellipse 1 copy 3" class="cls-8" cx="247" cy="978" r="18"/>
    <circle id="Ellipse_1_copy_4-5" data-name="Ellipse 1 copy 4" class="cls-8" cx="314" cy="978" r="18"/>
    <circle id="Ellipse_1_copy_5-5" data-name="Ellipse 1 copy 5" class="cls-8" cx="381" cy="978" r="18"/>
    <circle id="Ellipse_1_copy_6-5" data-name="Ellipse 1 copy 6" class="cls-8" cx="448" cy="978" r="18"/>
    <circle id="Ellipse_1_copy_7-5" data-name="Ellipse 1 copy 7" class="cls-8" cx="515" cy="978" r="18"/>
    <circle id="Ellipse_1_copy_8-5" data-name="Ellipse 1 copy 8" class="cls-8" cx="582" cy="978" r="18"/>
    <circle id="Ellipse_1_copy_9-5" data-name="Ellipse 1 copy 9" class="cls-8" cx="649" cy="978" r="18"/>
  </g>
  <g id="Group_1_copy_7" data-name="Group 1 copy 7">
    <circle class="cls-8" cx="46" cy="921" r="18"/>
    <circle id="Ellipse_1_copy-6" data-name="Ellipse 1 copy" class="cls-8" cx="113" cy="921" r="18"/>
    <circle id="Ellipse_1_copy_2-6" data-name="Ellipse 1 copy 2" class="cls-8" cx="180" cy="921" r="18"/>
    <circle id="Ellipse_1_copy_3-6" data-name="Ellipse 1 copy 3" class="cls-8" cx="247" cy="921" r="18"/>
    <circle id="Ellipse_1_copy_4-6" data-name="Ellipse 1 copy 4" class="cls-8" cx="314" cy="921" r="18"/>
    <circle id="Ellipse_1_copy_5-6" data-name="Ellipse 1 copy 5" class="cls-8" cx="381" cy="921" r="18"/>
    <circle id="Ellipse_1_copy_6-6" data-name="Ellipse 1 copy 6" class="cls-8" cx="448" cy="921" r="18"/>
    <circle id="Ellipse_1_copy_7-6" data-name="Ellipse 1 copy 7" class="cls-8" cx="515" cy="921" r="18"/>
    <circle id="Ellipse_1_copy_8-6" data-name="Ellipse 1 copy 8" class="cls-8" cx="582" cy="921" r="18"/>
    <circle id="Ellipse_1_copy_9-6" data-name="Ellipse 1 copy 9" class="cls-8" cx="649" cy="921" r="18"/>
  </g>
  <g id="Group_1_copy_4" data-name="Group 1 copy 4">
    <circle class="cls-8" cx="46" cy="1092" r="18"/>
    <circle id="Ellipse_1_copy-7" data-name="Ellipse 1 copy" class="cls-8" cx="113" cy="1092" r="18"/>
    <circle id="Ellipse_1_copy_2-7" data-name="Ellipse 1 copy 2" class="cls-8" cx="180" cy="1092" r="18"/>
    <circle id="Ellipse_1_copy_3-7" data-name="Ellipse 1 copy 3" class="cls-8" cx="247" cy="1092" r="18"/>
    <circle id="Ellipse_1_copy_4-7" data-name="Ellipse 1 copy 4" class="cls-8" cx="314" cy="1092" r="18"/>
    <circle id="Ellipse_1_copy_5-7" data-name="Ellipse 1 copy 5" class="cls-8" cx="381" cy="1092" r="18"/>
    <circle id="Ellipse_1_copy_6-7" data-name="Ellipse 1 copy 6" class="cls-8" cx="448" cy="1092" r="18"/>
    <circle id="Ellipse_1_copy_7-7" data-name="Ellipse 1 copy 7" class="cls-8" cx="515" cy="1092" r="18"/>
    <circle id="Ellipse_1_copy_8-7" data-name="Ellipse 1 copy 8" class="cls-8" cx="582" cy="1092" r="18"/>
    <circle id="Ellipse_1_copy_9-7" data-name="Ellipse 1 copy 9" class="cls-8" cx="649" cy="1092" r="18"/>
  </g>
  <g id="Group_1_copy_5" data-name="Group 1 copy 5">
    <circle class="cls-8" cx="46" cy="1149" r="18"/>
    <circle id="Ellipse_1_copy-8" data-name="Ellipse 1 copy" class="cls-8" cx="113" cy="1149" r="18"/>
    <circle id="Ellipse_1_copy_2-8" data-name="Ellipse 1 copy 2" class="cls-8" cx="180" cy="1149" r="18"/>
    <circle id="Ellipse_1_copy_3-8" data-name="Ellipse 1 copy 3" class="cls-8" cx="247" cy="1149" r="18"/>
    <circle id="Ellipse_1_copy_4-8" data-name="Ellipse 1 copy 4" class="cls-8" cx="314" cy="1149" r="18"/>
    <circle id="Ellipse_1_copy_5-8" data-name="Ellipse 1 copy 5" class="cls-8" cx="381" cy="1149" r="18"/>
    <circle id="Ellipse_1_copy_6-8" data-name="Ellipse 1 copy 6" class="cls-8" cx="448" cy="1149" r="18"/>
    <circle id="Ellipse_1_copy_7-8" data-name="Ellipse 1 copy 7" class="cls-8" cx="515" cy="1149" r="18"/>
    <circle id="Ellipse_1_copy_8-8" data-name="Ellipse 1 copy 8" class="cls-8" cx="582" cy="1149" r="18"/>
    <circle id="Ellipse_1_copy_9-8" data-name="Ellipse 1 copy 9" class="cls-8" cx="649" cy="1149" r="18"/>
  </g>
  <rect id="Rounded_Rectangle_1" data-name="Rounded Rectangle 1" class="cls-9" x="58" y="205" width="143" height="919" rx="71.5" ry="71.5"/>
  <circle class="cls-10" cx="353.156" cy="603.5" r="244.094"/>
  <text id="Sota" class="cls-11" transform="translate(384.339 684.225) rotate(-26.799) scale(1.215)"><tspan x="0">Sota</tspan></text>
</svg>
